<?xml version="1.0" standalone="no"?>
<!DOCTYPE svg PUBLIC "-//W3C//DTD SVG 20010904//EN"
 "http://www.w3.org/TR/2001/REC-SVG-20010904/DTD/svg10.dtd">
<svg version="1.0" xmlns="http://www.w3.org/2000/svg"
 width="689.000000pt" height="793.000000pt" viewBox="0 0 689.000000 793.000000"
 preserveAspectRatio="xMidYMid meet">

<g transform="translate(0.000000,793.000000) scale(0.100000,-0.100000)"
fill="#b82d1b" stroke="none">
<path d="M3387 7897 c4 -6 -5 -8 -20 -5 -16 3 -24 1 -20 -5 4 -6 -2 -8 -15 -5
-12 4 -20 3 -17 -2 7 -11 -24 -22 -37 -13 -6 3 -8 1 -4 -5 6 -10 -30 -28 -47
-24 -5 1 -6 -1 -3 -6 6 -10 -68 -54 -78 -47 -3 3 -4 2 -1 -2 8 -10 -34 -35
-47 -27 -7 4 -8 3 -4 -4 7 -11 -6 -17 -27 -13 -5 1 -6 -3 -3 -8 6 -9 -31 -27
-47 -23 -5 1 -6 -2 -2 -8 6 -9 -8 -14 -28 -11 -5 1 -6 -3 -3 -8 6 -9 -31 -27
-47 -23 -5 1 -6 -1 -3 -6 6 -10 -68 -54 -78 -47 -3 3 -4 2 -1 -2 8 -10 -64
-55 -77 -47 -6 4 -8 3 -5 -3 7 -11 -66 -56 -77 -48 -3 3 -4 2 -1 -2 8 -10 -34
-35 -47 -27 -7 4 -8 3 -4 -4 7 -11 -6 -17 -27 -13 -5 1 -6 -3 -3 -8 6 -9 -31
-27 -47 -23 -5 1 -6 -1 -3 -6 7 -12 -69 -54 -79 -44 -5 4 -5 2 -2 -4 7 -13
-66 -57 -78 -46 -5 4 -6 2 -2 -4 6 -10 -97 -77 -119 -77 -7 0 -11 -4 -8 -9 5
-8 -11 -12 -31 -8 -5 1 -7 -2 -3 -6 11 -10 -30 -37 -44 -28 -7 4 -8 3 -4 -4 7
-11 -6 -17 -27 -13 -5 1 -6 -3 -3 -8 6 -9 -31 -27 -47 -23 -5 1 -6 -2 -2 -8 6
-10 -9 -15 -30 -10 -5 1 -7 -2 -3 -6 11 -10 -30 -37 -44 -28 -7 4 -8 3 -4 -4
7 -11 -6 -17 -27 -13 -5 1 -6 -3 -3 -8 6 -9 -31 -27 -47 -23 -5 1 -6 -2 -2 -8
6 -10 -9 -15 -30 -10 -5 1 -7 -2 -3 -6 11 -10 -30 -37 -44 -28 -7 4 -8 3 -4
-4 7 -11 -7 -17 -29 -12 -5 1 -7 -2 -3 -6 11 -11 -30 -36 -45 -28 -6 4 -9 4
-5 -1 11 -11 -60 -58 -74 -49 -6 4 -8 3 -5 -3 8 -12 -67 -55 -78 -45 -5 4 -5
2 -2 -4 6 -11 -65 -57 -77 -49 -3 3 -4 2 -1 -2 8 -10 -64 -55 -77 -47 -6 4 -8
3 -5 -3 8 -12 -67 -55 -79 -45 -5 4 -6 3 -2 -2 10 -12 -29 -39 -44 -30 -7 4
-8 3 -4 -4 7 -11 -6 -17 -27 -13 -5 1 -6 -3 -3 -8 7 -10 -32 -27 -49 -22 -5 1
-7 -1 -3 -5 11 -10 -60 -56 -74 -48 -7 4 -8 3 -4 -4 7 -11 -7 -17 -29 -12 -5
1 -7 -2 -3 -6 11 -10 -30 -37 -44 -28 -7 4 -8 3 -4 -4 7 -11 -7 -17 -29 -12
-5 1 -7 -2 -3 -6 11 -10 -30 -37 -44 -28 -7 4 -8 3 -4 -4 7 -11 -7 -17 -29
-12 -5 1 -7 -2 -3 -6 11 -10 -30 -37 -44 -28 -7 4 -8 3 -4 -4 7 -11 -7 -17
-29 -12 -5 1 -7 -2 -3 -6 11 -10 -30 -37 -44 -28 -7 4 -8 3 -4 -4 7 -11 -7
-17 -29 -12 -5 1 -7 -2 -3 -6 11 -10 -30 -37 -44 -28 -6 4 -8 3 -5 -3 8 -12
-67 -55 -78 -45 -5 4 -5 2 -2 -4 6 -11 -65 -57 -77 -49 -3 3 -4 2 -1 -2 8 -10
-64 -55 -78 -47 -6 4 -9 4 -5 -1 11 -11 -29 -38 -44 -29 -7 4 -8 3 -4 -4 7
-11 -7 -17 -29 -12 -5 1 -7 -2 -3 -6 11 -10 -30 -37 -44 -28 -6 4 -8 3 -5 -3
6 -9 -64 -56 -74 -50 -2 1 -3 0 -2 -2 6 -9 -38 -32 -49 -25 -6 4 -8 3 -5 -3 6
-9 -64 -56 -74 -50 -2 1 -3 0 -2 -2 1 -2 -17 -17 -40 -35 -23 -17 -56 -55 -73
-84 -17 -28 -34 -49 -37 -46 -3 3 -3 -4 0 -17 4 -15 3 -20 -5 -15 -8 5 -11
-453 -12 -1755 0 -969 -3 -1766 -7 -1772 -3 -5 -1 -7 4 -4 12 8 26 -50 16 -66
-3 -5 -2 -7 4 -4 13 8 36 -41 27 -55 -4 -6 -2 -8 3 -5 11 7 28 -20 24 -36 -1
-5 2 -6 7 -3 12 7 54 -38 45 -49 -5 -4 -3 -5 3 -2 11 6 67 -26 59 -35 -3 -2 1
-5 8 -5 22 0 126 -66 120 -77 -3 -5 -1 -6 5 -2 13 8 55 -17 47 -27 -3 -4 -2
-5 1 -2 10 7 84 -37 78 -47 -3 -5 -2 -8 3 -7 21 4 34 -2 27 -13 -4 -7 -3 -8 4
-4 14 9 55 -18 44 -28 -4 -4 -2 -6 3 -5 19 6 55 -12 49 -24 -4 -7 -4 -9 1 -5
11 10 86 -33 78 -45 -3 -6 -1 -7 5 -3 13 8 55 -17 47 -27 -3 -4 -2 -5 1 -2 12
8 83 -38 77 -49 -3 -6 -3 -8 2 -4 12 11 85 -33 78 -46 -3 -6 -3 -8 2 -4 10 10
86 -32 79 -44 -3 -5 -2 -8 3 -7 21 4 34 -2 27 -13 -4 -7 -3 -8 4 -4 14 9 55
-18 44 -28 -4 -4 -2 -7 3 -6 22 5 36 -1 29 -12 -4 -7 -3 -8 4 -4 14 9 55 -18
44 -28 -4 -4 -2 -7 3 -6 22 5 36 -1 29 -12 -4 -7 -3 -8 4 -4 14 9 55 -18 44
-28 -4 -4 -2 -7 3 -6 22 5 36 -1 29 -12 -4 -7 -3 -8 4 -4 13 8 85 -37 77 -47
-3 -4 -2 -5 1 -2 12 8 83 -38 77 -49 -3 -6 -3 -8 2 -4 11 10 86 -33 78 -45 -3
-6 -2 -7 4 -4 14 9 116 -57 106 -68 -4 -4 -2 -5 4 -1 15 8 86 -37 75 -48 -4
-4 -2 -7 3 -6 22 5 36 -1 29 -12 -4 -7 -3 -8 4 -4 14 9 55 -18 44 -28 -4 -4
-2 -7 3 -6 22 5 36 -1 29 -12 -4 -7 -3 -8 4 -4 15 9 54 -18 44 -30 -4 -5 -3
-6 2 -2 11 10 87 -32 80 -44 -3 -5 -2 -8 3 -7 21 4 34 -2 27 -13 -4 -7 -3 -8
4 -4 14 9 85 -38 74 -49 -4 -5 -1 -5 5 -1 15 9 86 -37 75 -49 -4 -5 -1 -5 5
-1 16 9 86 -37 75 -50 -4 -5 -3 -6 2 -2 12 10 87 -33 79 -45 -3 -6 -1 -7 5 -3
14 9 55 -18 44 -28 -4 -4 -2 -7 3 -6 22 5 36 -1 29 -12 -4 -7 -3 -8 4 -4 14 9
55 -18 44 -28 -4 -4 -2 -7 3 -6 22 5 36 -1 29 -12 -4 -7 -3 -8 4 -4 13 8 55
-17 47 -27 -3 -4 -2 -5 1 -2 12 8 83 -38 77 -49 -3 -6 -3 -8 2 -4 11 10 86
-33 78 -45 -3 -6 -1 -7 5 -3 15 9 55 -18 44 -29 -4 -5 -2 -5 5 -1 15 8 136
-67 126 -79 -5 -4 -2 -5 4 -1 15 8 56 -17 45 -28 -4 -4 -2 -6 3 -5 16 5 56
-12 51 -20 -3 -4 1 -8 8 -8 21 0 125 -66 119 -77 -3 -5 -1 -6 5 -2 15 9 54
-18 44 -30 -4 -5 -3 -6 2 -2 12 10 87 -33 79 -45 -3 -6 -1 -7 5 -3 14 9 55
-18 44 -28 -4 -4 -2 -7 3 -5 17 4 65 -13 60 -21 -3 -5 5 -6 17 -2 12 3 19 1
15 -4 -3 -6 9 -8 30 -6 20 3 33 1 30 -4 -3 -5 17 -9 43 -9 27 0 44 3 38 6 -8
5 45 18 94 22 9 1 14 6 11 11 -4 5 1 7 11 3 9 -4 14 -3 11 2 -6 10 33 27 50
22 5 -1 7 1 3 5 -11 11 30 36 45 28 6 -4 9 -3 4 1 -10 12 81 67 96 59 7 -4 9
-4 5 1 -11 12 29 38 45 29 6 -4 9 -4 5 1 -11 11 29 38 44 29 6 -4 8 -3 5 2 -6
11 148 107 170 107 7 0 11 3 8 5 -9 9 35 33 47 26 6 -4 8 -3 4 4 -6 10 30 28
47 24 5 -1 6 2 3 7 -7 10 32 27 49 22 5 -1 7 1 3 5 -11 11 30 36 45 28 6 -4 9
-4 5 1 -11 12 29 38 45 29 6 -4 9 -4 5 1 -11 11 29 38 44 29 6 -4 8 -3 5 3 -8
12 67 55 79 45 5 -4 6 -3 2 2 -10 12 29 39 44 30 6 -4 8 -3 5 2 -6 11 98 77
119 77 7 0 11 4 8 8 -4 8 35 25 49 21 5 -1 6 2 3 7 -6 9 31 27 47 23 5 -1 6 2
3 7 -6 9 31 27 47 23 5 -1 6 2 3 7 -6 9 31 27 47 23 5 -1 6 2 3 7 -7 10 32 27
49 22 5 -1 7 1 3 5 -11 11 30 36 45 28 6 -4 9 -4 5 1 -11 11 29 38 44 29 6 -4
8 -3 5 2 -6 11 98 77 120 77 7 0 11 3 8 5 -9 9 35 33 47 26 6 -4 8 -3 5 3 -7
11 66 56 77 48 3 -3 4 -2 1 2 -8 10 34 35 47 27 7 -4 8 -3 4 4 -7 11 7 17 29
12 5 -1 7 2 3 6 -11 10 30 37 44 28 7 -4 8 -3 4 4 -7 11 6 17 27 13 5 -1 6 2
3 7 -6 10 68 54 78 47 3 -3 4 -2 1 2 -8 10 64 55 77 47 6 -4 8 -3 5 3 -8 12
67 55 78 45 5 -4 5 -2 2 4 -6 11 65 57 77 49 3 -3 4 -2 1 2 -8 10 64 55 77 47
6 -4 8 -3 5 3 -8 12 67 55 78 45 5 -4 5 -2 2 4 -7 13 66 57 78 46 5 -4 5 -2 2
4 -7 13 66 57 78 46 5 -4 5 -2 2 4 -6 11 65 57 77 49 3 -3 4 -2 1 2 -8 10 64
55 78 47 6 -4 9 -4 5 1 -11 11 29 38 44 29 6 -4 8 -3 5 3 -7 11 66 56 77 48 3
-3 4 -2 1 2 -8 10 34 35 47 27 6 -4 8 -3 5 3 -7 11 66 56 77 48 3 -3 4 -2 1 2
-8 10 34 35 47 27 7 -4 8 -3 4 4 -7 11 7 17 29 12 5 -1 7 2 3 6 -11 10 30 37
44 28 7 -4 8 -3 4 4 -7 11 6 17 27 13 5 -1 6 3 3 8 -6 9 31 27 47 23 5 -1 6 2
2 8 -6 9 8 14 28 11 5 -1 6 3 2 9 -6 10 9 15 30 10 6 -1 7 2 2 6 -9 10 43 65
55 58 5 -3 7 -2 6 3 -1 4 9 31 22 58 l25 50 3 1768 2 1768 -24 52 c-14 28 -23
55 -20 59 3 5 2 7 -3 6 -12 -3 -91 80 -84 88 3 4 1 4 -5 1 -12 -7 -67 26 -59
36 3 4 2 5 -1 2 -11 -8 -84 37 -77 48 3 6 1 7 -5 3 -14 -9 -55 18 -44 28 4 4
3 7 -3 6 -22 -5 -36 1 -29 12 4 7 3 8 -4 4 -14 -9 -85 38 -74 49 4 5 1 5 -5 1
-14 -8 -56 17 -48 27 3 4 2 5 -1 2 -12 -8 -83 38 -77 49 3 6 3 8 -2 4 -11 -10
-86 33 -78 45 3 6 1 7 -5 3 -14 -9 -85 38 -74 49 4 5 1 5 -5 1 -16 -9 -56 17
-45 29 4 5 2 5 -4 2 -15 -8 -117 57 -107 68 4 4 3 5 -4 1 -15 -8 -166 87 -156
99 5 4 2 5 -4 1 -14 -8 -56 17 -48 27 3 4 2 5 -1 2 -12 -8 -83 38 -77 49 3 6
3 8 -2 4 -12 -11 -85 33 -78 46 3 6 3 8 -2 4 -11 -10 -86 33 -78 45 3 6 1 7
-5 3 -14 -9 -55 18 -44 28 4 4 3 7 -3 6 -22 -5 -36 1 -29 12 4 7 3 8 -4 4 -14
-9 -55 18 -44 28 4 4 3 7 -3 6 -22 -5 -36 1 -29 12 4 7 3 8 -4 4 -13 -8 -55
17 -47 27 3 4 2 5 -1 2 -10 -7 -84 37 -78 47 3 5 2 8 -3 7 -21 -4 -34 2 -27
13 4 7 3 8 -4 4 -13 -8 -55 17 -47 27 3 4 2 5 -1 2 -11 -8 -84 37 -77 48 3 6
1 7 -5 3 -14 -9 -55 18 -44 28 4 4 3 7 -3 6 -22 -5 -36 1 -29 12 4 7 3 8 -4 4
-14 -9 -85 38 -74 49 4 5 1 5 -5 1 -12 -7 -56 15 -50 25 1 2 0 3 -2 2 -10 -6
-79 42 -74 51 3 6 3 8 -2 4 -12 -11 -85 33 -78 46 3 6 3 8 -2 4 -12 -11 -85
33 -78 46 3 6 3 8 -2 4 -12 -11 -85 33 -78 46 3 6 3 8 -2 4 -11 -10 -86 33
-78 45 3 6 1 7 -5 3 -13 -8 -85 37 -77 47 3 4 2 5 -1 2 -12 -8 -83 38 -77 49
3 6 3 8 -2 4 -11 -10 -86 33 -78 45 3 6 1 7 -5 3 -13 -8 -85 37 -77 47 3 4 2
5 -1 2 -11 -8 -84 37 -77 48 3 6 1 7 -5 3 -14 -9 -85 38 -74 49 4 5 1 5 -5 1
-15 -8 -86 37 -75 48 4 4 3 6 -3 5 -17 -5 -56 12 -49 22 3 5 2 9 -3 8 -21 -4
-34 2 -27 13 4 7 3 8 -4 4 -11 -7 -55 16 -49 25 1 2 0 3 -2 2 -10 -6 -80 41
-74 50 3 6 2 7 -3 4 -12 -7 -107 47 -98 55 3 3 -1 6 -8 5 -32 -1 -49 4 -43 13
3 5 0 8 -7 5 -7 -3 -43 -1 -80 3 -42 5 -65 5 -61 -1z m-93 -379 c-5 -7 -3 -8
6 -3 33 20 42 -73 10 -105 -12 -12 -25 -18 -31 -15 -5 4 -8 1 -7 -7 2 -7 -5
-12 -15 -11 -10 0 -16 -2 -13 -5 9 -8 -46 -42 -57 -35 -6 3 -7 2 -4 -4 8 -12
-67 -55 -78 -45 -5 4 -5 1 -1 -5 7 -12 -6 -18 -29 -13 -5 1 -7 -2 -3 -6 11
-11 -60 -56 -75 -48 -6 4 -9 3 -4 -1 9 -11 -43 -46 -57 -38 -6 3 -7 2 -3 -2
10 -12 -122 -97 -137 -88 -6 3 -8 3 -4 -2 11 -11 -90 -78 -104 -69 -7 4 -8 3
-4 -4 7 -11 -7 -17 -29 -12 -5 1 -6 -2 -2 -6 10 -11 -93 -75 -107 -67 -6 3 -8
3 -4 -2 11 -11 -90 -78 -104 -69 -7 4 -8 3 -4 -4 7 -11 -7 -17 -29 -12 -5 1
-7 -2 -3 -6 11 -10 -90 -76 -104 -68 -7 4 -8 3 -4 -4 7 -11 -7 -17 -29 -12 -5
1 -7 -2 -3 -6 11 -10 -60 -56 -74 -48 -7 4 -8 3 -4 -4 7 -11 -6 -17 -27 -13
-5 1 -6 -2 -3 -7 7 -12 -69 -54 -79 -44 -5 4 -5 1 -1 -5 7 -12 -5 -18 -27 -14
-5 1 -6 -2 -3 -7 7 -12 -69 -54 -79 -44 -5 4 -5 1 -1 -5 7 -12 -6 -18 -29 -13
-5 1 -7 -2 -3 -6 11 -11 -30 -36 -45 -28 -6 4 -9 3 -4 -1 9 -11 -43 -46 -56
-38 -6 3 -7 2 -4 -4 8 -12 -67 -55 -78 -45 -5 4 -5 1 -1 -5 7 -12 -6 -18 -29
-13 -5 1 -7 -2 -3 -6 11 -10 -60 -56 -74 -48 -7 4 -8 3 -4 -4 7 -11 -6 -17
-27 -13 -5 1 -6 -2 -3 -7 7 -12 -69 -54 -79 -44 -5 4 -5 1 -1 -5 7 -12 -5 -18
-27 -14 -5 1 -6 -2 -3 -7 7 -12 -69 -54 -79 -44 -5 4 -5 2 -2 -4 6 -11 -65
-57 -77 -49 -3 3 -4 2 -1 -2 8 -10 -64 -55 -78 -47 -6 4 -9 4 -5 -1 11 -12
-29 -38 -45 -29 -6 4 -9 4 -5 -1 11 -11 -60 -58 -74 -49 -6 4 -8 3 -5 -3 8
-12 -67 -55 -78 -45 -5 4 -5 2 -2 -4 6 -11 -65 -57 -77 -49 -3 3 -4 2 -1 -2 8
-10 -34 -35 -48 -27 -6 4 -9 4 -5 -1 11 -12 -29 -38 -45 -29 -6 4 -9 4 -5 -1
11 -11 -29 -38 -44 -29 -6 4 -8 3 -5 -3 10 -16 -17 -23 -86 -23 -43 0 -57 3
-47 10 10 6 3 7 -24 3 -26 -4 -37 -3 -33 5 5 6 0 8 -13 5 -15 -4 -20 0 -20 16
0 19 10 26 33 22 5 -1 6 2 3 7 -7 12 69 54 79 44 5 -4 5 -2 1 5 -6 11 29 30
47 25 5 -1 6 1 3 6 -5 9 100 75 121 75 7 0 11 3 8 5 -9 9 35 33 48 26 6 -4 9
-4 5 1 -11 11 60 58 74 49 6 -4 8 -3 4 4 -6 10 30 28 47 24 5 -1 6 1 3 6 -7
12 69 54 79 44 5 -4 5 -2 2 4 -6 11 65 57 77 49 3 -3 4 -2 1 2 -8 10 34 35 47
27 7 -4 8 -3 4 4 -7 11 7 17 29 12 6 -1 7 2 3 6 -11 10 30 37 44 28 6 -4 8 -3
5 3 -8 12 67 55 78 45 5 -4 5 -2 2 4 -6 11 65 57 77 49 3 -3 4 -2 1 2 -8 10
34 35 47 27 6 -4 8 -3 5 3 -7 11 66 56 77 48 3 -3 4 -2 1 2 -8 10 34 35 47 27
6 -4 8 -3 5 3 -7 11 66 56 77 48 3 -3 4 -2 1 2 -8 10 34 35 47 27 6 -4 8 -3 5
3 -7 11 66 56 77 48 3 -3 4 -2 1 2 -8 10 84 65 97 57 6 -4 8 -3 5 3 -7 11 66
56 77 48 3 -3 4 -2 1 2 -8 10 34 35 48 27 6 -4 9 -3 4 1 -10 11 111 87 125 79
6 -4 8 -3 5 3 -7 11 66 56 77 48 3 -3 4 -2 1 2 -8 10 34 35 48 27 6 -4 9 -4 5
1 -11 11 29 38 44 29 7 -4 8 -3 4 4 -7 11 7 17 29 12 5 -1 7 2 2 6 -10 11 112
86 126 78 7 -4 9 -4 5 1 -11 11 29 38 44 29 6 -4 8 -3 5 3 -6 9 64 56 74 50 2
-1 3 0 2 2 -6 9 38 32 49 25 7 -4 8 -3 4 4 -7 11 7 17 29 12 6 -1 7 2 3 6 -11
10 30 37 44 28 6 -4 8 -3 5 3 -8 12 67 55 79 45 5 -4 6 -3 2 2 -10 12 29 39
44 30 7 -4 8 -3 4 4 -7 11 7 17 29 12 6 -1 7 2 3 6 -11 10 30 37 44 28 6 -4 8
-3 5 3 -8 12 67 55 78 45 5 -4 5 -1 1 6 -7 11 6 17 29 12 6 -1 7 2 2 6 -4 4
16 23 45 41 56 34 74 41 62 21z m338 -12 c10 -5 15 -13 11 -19 -3 -6 -1 -7 5
-3 13 8 55 -17 47 -27 -3 -4 -2 -5 1 -2 10 7 84 -37 78 -47 -3 -5 -2 -7 3 -6
17 4 53 -14 47 -24 -4 -7 -2 -8 4 -4 14 9 85 -38 74 -49 -4 -5 -1 -5 5 -1 15
8 56 -17 45 -28 -4 -4 -2 -7 3 -6 22 5 36 -1 29 -12 -4 -7 -3 -8 4 -4 12 7 56
-17 47 -26 -3 -2 1 -5 8 -5 23 0 126 -67 120 -77 -4 -6 -3 -8 2 -4 11 10 86
-33 78 -45 -3 -6 -1 -7 5 -3 13 8 55 -17 47 -27 -3 -4 -2 -5 1 -2 11 8 84 -37
77 -48 -3 -6 -1 -7 5 -3 13 8 55 -17 47 -27 -3 -4 -2 -5 1 -2 11 8 84 -37 77
-48 -3 -6 -1 -7 5 -3 14 8 135 -68 125 -79 -5 -4 -2 -5 4 -1 16 9 56 -17 45
-29 -4 -5 -1 -5 5 -1 14 8 56 -17 48 -27 -3 -4 -2 -5 1 -2 12 8 83 -38 77 -49
-3 -6 -3 -8 2 -4 11 10 86 -33 78 -45 -3 -6 -1 -7 5 -3 15 9 54 -18 44 -30 -4
-5 -3 -6 2 -2 12 10 87 -33 79 -45 -3 -6 -1 -7 5 -3 14 9 55 -18 44 -28 -4 -4
-2 -6 3 -5 19 6 55 -12 49 -24 -4 -7 -4 -9 1 -5 10 10 86 -32 79 -44 -3 -5 -2
-8 3 -7 21 4 34 -2 27 -13 -4 -7 -3 -8 4 -4 14 9 85 -38 74 -49 -4 -5 -1 -5 5
-1 15 8 56 -17 45 -28 -4 -4 -2 -7 3 -6 22 5 36 -1 29 -12 -4 -7 -3 -8 4 -4
14 9 55 -18 44 -28 -4 -4 -2 -7 3 -6 22 5 36 -1 29 -12 -4 -7 -3 -8 4 -4 14 9
55 -18 44 -28 -4 -4 -2 -6 3 -5 19 5 55 -12 49 -23 -4 -6 -3 -8 3 -5 14 9 116
-57 106 -68 -4 -4 -2 -5 4 -1 14 8 56 -17 48 -27 -3 -4 -2 -5 1 -2 11 8 84
-37 77 -48 -3 -6 -1 -7 5 -3 14 9 55 -18 44 -28 -4 -4 -2 -7 3 -6 22 5 36 -1
29 -12 -4 -7 -3 -8 4 -4 13 8 55 -17 47 -27 -3 -4 -2 -5 1 -2 12 8 83 -38 77
-49 -3 -6 -3 -8 2 -4 10 10 86 -32 79 -44 -3 -5 -2 -7 3 -6 18 5 53 -14 47
-25 -4 -7 -4 -9 1 -5 12 11 85 -33 78 -46 -3 -6 -3 -8 2 -4 4 4 16 3 26 -3 26
-13 13 -42 -17 -36 -14 2 -21 0 -17 -6 3 -6 -6 -8 -25 -5 -17 2 -29 1 -26 -4
3 -4 -16 -8 -43 -8 -39 0 -64 9 -130 46 -45 26 -80 51 -76 57 3 6 1 7 -5 3
-13 -8 -55 17 -47 27 3 4 2 5 -1 2 -11 -8 -84 37 -77 48 3 6 1 7 -5 3 -13 -8
-55 17 -47 27 3 4 2 5 -1 2 -9 -6 -84 36 -79 45 2 4 -2 7 -9 7 -20 0 -125 66
-120 75 3 5 2 8 -3 7 -21 -4 -34 2 -27 13 4 7 3 8 -4 4 -14 -9 -85 38 -74 49
4 5 1 5 -5 1 -15 -8 -56 17 -45 28 4 4 3 7 -3 6 -22 -5 -36 1 -29 12 4 7 3 8
-4 4 -14 -9 -55 18 -44 28 4 4 3 7 -3 6 -22 -5 -36 1 -29 12 4 7 3 8 -4 4 -14
-9 -55 18 -44 28 4 4 3 7 -3 6 -22 -5 -36 1 -29 12 4 6 3 8 -3 5 -13 -8 -116
57 -106 67 4 4 4 7 -2 6 -22 -5 -36 1 -29 12 4 7 3 8 -4 4 -14 -8 -85 38 -74
48 4 4 2 7 -3 6 -22 -5 -36 1 -29 12 4 7 3 8 -4 4 -14 -9 -55 18 -44 28 4 4 2
7 -3 6 -23 -5 -36 1 -29 13 4 6 4 9 -1 5 -12 -11 -85 33 -78 46 3 6 3 8 -2 4
-11 -10 -86 33 -78 45 3 6 2 7 -4 4 -11 -7 -65 27 -58 36 3 4 2 5 -1 2 -10 -7
-84 37 -78 47 3 5 2 8 -3 7 -22 -4 -34 2 -27 14 4 6 4 9 -1 5 -10 -10 -86 32
-79 44 3 5 2 8 -3 7 -21 -4 -34 2 -27 13 4 7 3 8 -4 4 -13 -8 -55 17 -47 27 3
4 2 5 -1 2 -11 -8 -84 37 -77 48 3 6 2 7 -4 4 -11 -7 -65 27 -58 36 3 4 2 5
-1 2 -10 -7 -84 37 -78 47 3 5 2 8 -3 7 -21 -4 -34 2 -27 13 4 7 3 8 -4 4 -14
-8 -85 38 -74 48 4 4 3 7 -3 6 -22 -5 -36 1 -29 12 4 7 3 8 -4 4 -14 -8 -145
78 -134 88 4 4 3 7 -3 6 -22 -5 -36 1 -29 12 4 7 3 8 -4 4 -14 -8 -85 38 -74
48 4 4 2 7 -3 6 -22 -5 -36 1 -29 12 4 7 3 8 -4 4 -13 -8 -85 37 -77 47 3 4 2
5 -1 2 -11 -7 -65 25 -59 36 4 5 1 8 -7 7 -7 -2 -12 3 -10 10 1 6 -2 12 -8 12
-13 0 -13 46 0 70 10 19 38 21 72 6z m-626 -685 c-3 -4 6 -6 21 -3 19 4 24 2
18 -8 -5 -8 -4 -11 3 -6 16 10 63 -4 55 -17 -3 -6 -1 -7 5 -3 25 15 160 -82
146 -106 -3 -5 0 -7 8 -6 7 2 12 -5 12 -14 -1 -10 3 -15 9 -11 6 4 8 0 4 -11
-4 -9 -3 -15 2 -12 5 3 11 -4 15 -17 9 -33 7 -129 -2 -123 -5 3 -6 -9 -4 -26
4 -23 2 -29 -8 -23 -9 5 -11 4 -6 -4 10 -15 -13 -73 -25 -65 -5 3 -6 -3 -2
-12 5 -13 3 -15 -7 -9 -9 5 -11 4 -6 -4 7 -10 -58 -111 -70 -111 -3 0 -2 5 2
12 4 7 3 8 -5 4 -6 -4 -9 -11 -6 -15 4 -8 -31 -46 -44 -46 -3 0 -5 -3 -4 -7 4
-11 -74 -68 -82 -60 -5 4 -5 2 -2 -4 7 -11 -37 -48 -58 -49 -5 -1 -9 -6 -8
-12 2 -7 -9 -21 -24 -32 l-26 -21 185 0 c209 0 215 -2 205 -68 -5 -25 -3 -32
3 -22 7 11 10 3 10 -28 0 -24 -4 -41 -9 -38 -5 4 -7 -2 -4 -13 3 -12 -3 -24
-18 -35 -21 -14 -64 -16 -359 -14 -243 2 -295 4 -190 8 l145 5 -152 5 c-89 3
-149 1 -146 -4 4 -5 1 -6 -5 -2 -8 5 -12 38 -12 90 l0 84 96 91 c53 51 100 88
106 85 7 -4 8 -2 4 4 -7 11 32 38 47 34 5 -1 6 1 3 6 -6 10 54 58 67 54 5 -1
6 1 3 6 -8 13 98 114 110 105 5 -5 6 -4 2 0 -3 5 7 30 23 55 16 25 29 54 29
65 0 10 3 16 8 14 4 -3 7 8 7 23 0 16 -2 27 -4 24 -2 -2 -11 11 -20 29 -9 17
-27 37 -41 44 -33 17 -103 16 -145 -1 -18 -8 -36 -12 -39 -10 -3 2 -4 1 -1 -2
2 -4 -7 -20 -20 -36 -14 -16 -25 -34 -25 -39 0 -6 -4 -8 -9 -5 -5 3 -8 -2 -7
-11 0 -10 -7 -19 -18 -21 -10 -2 -16 0 -13 5 3 5 -7 8 -22 5 -36 -5 -106 14
-126 35 -9 9 -14 24 -12 35 3 10 1 16 -4 12 -17 -10 -9 71 11 104 18 29 30 37
53 33 5 -1 6 3 2 9 -6 9 7 14 28 11 4 0 6 4 5 10 -4 14 83 61 105 55 9 -2 15
0 12 4 -7 11 51 23 66 14 8 -4 9 -3 5 4 -5 9 15 12 74 12 45 0 79 -4 76 -9z
m948 -3 c-5 -7 -3 -8 5 -3 16 9 103 -14 95 -26 -3 -5 3 -6 12 -2 12 4 15 3 10
-5 -4 -8 -2 -10 7 -6 23 9 139 -106 171 -170 15 -30 25 -60 20 -67 -4 -7 -3
-9 4 -5 13 8 27 -48 16 -65 -5 -8 -3 -9 6 -4 10 6 12 0 7 -31 -4 -27 -3 -34 3
-24 7 10 10 -27 10 -112 0 -126 -14 -233 -30 -223 -4 3 -6 -5 -2 -17 3 -14 1
-19 -6 -14 -8 4 -10 2 -6 -8 13 -34 -121 -206 -149 -190 -6 4 -9 4 -5 -1 11
-11 -29 -38 -44 -29 -6 4 -8 3 -5 -3 8 -13 -76 -38 -98 -29 -9 3 -13 2 -10 -4
4 -6 -15 -10 -48 -10 -67 0 -148 11 -143 19 2 3 -8 6 -24 7 -38 1 -122 43
-113 56 3 7 1 8 -6 4 -16 -10 -105 79 -95 95 4 7 3 9 -4 6 -13 -9 -56 78 -46
94 5 8 3 9 -6 4 -10 -6 -12 -3 -8 13 4 14 2 20 -4 16 -7 -5 -9 2 -6 19 3 15 2
24 -3 22 -7 -5 -11 13 -25 118 -7 55 4 219 15 213 4 -3 5 9 3 26 -3 20 -1 29
6 24 6 -3 8 1 5 13 -5 21 36 123 47 116 4 -3 7 3 6 13 0 9 5 16 12 14 8 -1 11
2 8 7 -8 13 64 82 77 74 6 -3 7 -1 3 6 -10 15 117 75 144 68 11 -3 18 -1 14 4
-3 5 36 9 91 9 70 0 94 -3 89 -12z m-3309 -1288 c94 -5 384 -23 645 -39 553
-35 954 -59 1130 -68 78 -4 117 -9 105 -14 -13 -5 -6 -6 18 -3 49 8 512 -17
496 -27 -6 -4 10 -4 36 -2 34 4 50 2 56 -8 12 -20 11 -31 -3 -23 -7 4 -8 3 -4
-4 8 -14 -88 -195 -98 -185 -4 4 -4 -1 0 -11 6 -15 4 -17 -6 -11 -8 5 -11 4
-6 -3 8 -14 -28 -74 -39 -64 -5 4 -5 2 -1 -5 8 -15 -28 -76 -39 -65 -5 4 -5 2
-1 -5 8 -15 -28 -76 -39 -65 -5 4 -5 1 -1 -5 9 -16 -17 -56 -29 -45 -5 4 -5 2
-1 -5 8 -14 -28 -76 -38 -65 -4 4 -6 3 -5 -3 5 -19 -12 -55 -23 -49 -7 4 -8 2
-4 -4 8 -13 -28 -75 -38 -64 -4 4 -6 3 -5 -3 5 -19 -12 -55 -23 -49 -7 4 -8 2
-4 -4 8 -13 -28 -75 -38 -64 -4 4 -6 3 -5 -3 5 -19 -12 -55 -23 -49 -7 4 -8 2
-4 -4 8 -13 -28 -75 -38 -64 -4 4 -6 3 -5 -3 5 -19 -12 -55 -23 -49 -7 4 -8 2
-4 -4 9 -15 -18 -55 -29 -44 -5 4 -5 2 -1 -5 8 -15 -28 -76 -39 -65 -5 4 -6 2
-2 -4 8 -14 -57 -127 -68 -117 -4 4 -5 2 -1 -4 9 -16 -17 -56 -29 -45 -5 4 -5
2 -1 -5 8 -14 -28 -76 -38 -65 -4 4 -6 3 -5 -3 5 -19 -12 -55 -23 -49 -7 4 -8
2 -4 -4 9 -15 -18 -55 -29 -44 -5 4 -5 2 -1 -5 8 -15 -28 -76 -39 -65 -5 4 -5
2 -1 -5 8 -15 -28 -76 -39 -65 -5 4 -5 1 -1 -5 8 -15 -17 -56 -28 -46 -4 4 -4
-1 0 -11 6 -15 4 -17 -6 -11 -9 5 -11 4 -6 -3 9 -15 -18 -55 -29 -44 -5 4 -5
1 -1 -5 9 -16 -17 -56 -29 -45 -5 4 -5 2 -1 -5 8 -15 -28 -76 -39 -65 -5 4 -5
2 -1 -5 8 -14 -28 -76 -38 -65 -4 4 -6 3 -5 -3 5 -19 -12 -55 -23 -49 -7 4 -8
2 -4 -4 8 -13 -28 -75 -38 -64 -4 4 -6 2 -5 -3 5 -19 -12 -55 -23 -49 -7 4 -8
2 -4 -4 8 -14 -28 -74 -39 -64 -5 4 -5 1 -1 -5 9 -16 -17 -56 -29 -45 -5 4 -5
2 -1 -5 8 -14 -28 -76 -38 -65 -4 4 -6 2 -5 -3 5 -19 -12 -55 -23 -49 -7 4 -8
2 -4 -4 9 -14 -53 -114 -68 -109 -6 2 -10 11 -10 20 1 9 -2 15 -6 12 -11 -7
-22 24 -13 37 3 7 1 8 -5 4 -6 -3 -16 3 -22 14 -6 11 -7 20 -3 20 4 0 2 4 -6
9 -11 7 -8 18 15 59 15 28 32 48 38 45 5 -3 6 -1 2 5 -9 15 18 55 29 44 5 -4
5 -2 1 5 -8 15 28 76 39 65 5 -4 5 -1 1 5 -8 15 17 56 28 46 4 -4 4 1 0 11 -6
15 -4 17 6 11 9 -5 11 -4 6 3 -9 15 18 55 29 44 5 -4 5 -2 1 5 -8 15 28 76 39
65 5 -4 5 -2 1 5 -8 15 28 76 39 65 5 -4 5 -1 1 5 -9 16 17 56 29 45 5 -4 5
-2 1 5 -8 14 28 76 38 65 4 -4 6 -2 5 3 -5 19 12 55 23 49 7 -4 8 -2 4 4 -8
13 28 75 38 64 4 -4 6 -2 5 3 -5 19 12 55 23 49 7 -4 8 -2 4 4 -8 13 28 75 38
64 4 -4 6 -2 5 3 -5 19 12 55 23 49 7 -4 8 -2 4 4 -8 14 28 74 39 64 5 -4 5
-1 1 5 -9 16 17 56 29 45 5 -4 5 -2 1 5 -8 15 28 76 39 65 5 -4 5 -1 1 5 -9
16 17 56 29 45 5 -4 5 -2 1 5 -8 15 28 76 39 65 5 -4 5 -2 1 5 -8 15 28 76 39
65 5 -4 5 -1 1 5 -9 16 17 56 29 45 5 -4 5 -2 1 5 -8 14 28 76 38 65 4 -4 6
-2 5 3 -5 19 12 55 23 49 7 -4 8 -2 4 4 -8 13 28 75 38 64 4 -4 6 -2 5 3 -5
19 12 55 23 49 7 -4 8 -2 4 4 -8 14 28 74 39 64 5 -4 5 -1 1 5 -9 16 17 56 29
45 5 -4 5 -2 1 5 -8 15 28 76 39 65 5 -4 5 -1 1 5 -9 16 17 56 29 45 5 -4 5
-2 1 5 -8 15 28 76 39 65 5 -4 5 -2 1 5 -8 14 28 76 38 65 4 -4 6 -2 5 3 -5
19 12 55 23 49 7 -4 8 -2 4 4 -8 14 18 55 28 45 4 -4 4 1 0 11 -6 15 -4 17 6
11 8 -5 11 -4 6 3 -3 6 3 26 14 44 32 53 28 58 -47 58 -38 0 -214 9 -393 20
-179 11 -345 20 -370 20 -33 0 -41 3 -30 10 10 6 3 8 -23 3 -49 -7 -964 49
-940 58 10 4 -4 5 -30 2 -26 -3 -167 2 -313 12 l-265 19 -30 43 c-17 24 -27
48 -23 55 4 6 3 8 -4 4 -12 -7 -27 29 -17 43 3 5 20 8 38 5 17 -2 109 -8 202
-14z m5823 2 c7 -5 10 -16 6 -25 -3 -9 -11 -14 -17 -10 -6 3 -7 1 -3 -5 9 -15
-18 -55 -29 -44 -5 4 -5 2 -2 -4 4 -7 -1 -21 -11 -32 -16 -18 -40 -21 -297
-36 -154 -8 -534 -32 -845 -51 -311 -20 -587 -34 -613 -32 -31 3 -44 1 -35 -5
8 -6 -19 -8 -74 -6 -47 2 -82 0 -76 -3 14 -9 -262 -23 -303 -15 -27 5 -30 4
-14 -4 14 -7 -8 -9 -77 -7 -53 1 -91 -1 -85 -5 9 -6 8 -8 -1 -8 -10 0 -8 -9 7
-36 12 -19 18 -41 15 -47 -4 -7 -4 -9 1 -5 11 10 47 -50 39 -64 -4 -6 -3 -8 3
-5 13 8 46 -50 37 -66 -4 -6 -4 -9 1 -5 11 11 47 -50 39 -65 -4 -7 -4 -9 1 -5
12 11 38 -29 29 -45 -4 -6 -4 -9 1 -5 11 11 47 -50 39 -65 -4 -7 -4 -9 1 -5
11 11 47 -50 39 -65 -4 -7 -4 -9 1 -5 11 11 47 -50 39 -65 -4 -7 -4 -9 1 -5
11 11 47 -50 39 -65 -4 -7 -4 -9 1 -5 12 11 38 -29 29 -45 -4 -6 -4 -9 1 -5
11 11 47 -50 39 -65 -4 -7 -4 -9 1 -5 11 11 47 -50 39 -65 -4 -7 -4 -9 1 -5
11 11 38 -29 29 -44 -5 -7 -3 -8 6 -3 10 6 12 4 6 -11 -4 -10 -4 -15 0 -11 11
10 36 -31 28 -46 -4 -6 -4 -9 1 -5 11 11 47 -50 39 -65 -4 -7 -4 -9 1 -5 11
11 47 -50 39 -65 -4 -7 -4 -9 1 -5 11 11 47 -50 39 -65 -4 -7 -4 -9 1 -5 11
11 47 -50 39 -65 -4 -7 -4 -9 1 -5 11 11 47 -50 39 -65 -4 -7 -4 -9 1 -5 11
11 47 -50 39 -65 -4 -7 -4 -9 1 -5 11 11 38 -29 29 -44 -5 -7 -3 -8 6 -3 10 6
12 4 6 -11 -4 -10 -4 -15 0 -11 11 10 36 -31 28 -46 -4 -6 -4 -9 1 -5 11 11
47 -50 39 -65 -4 -7 -4 -9 1 -5 11 11 47 -50 39 -65 -4 -7 -4 -9 1 -5 11 11
47 -50 39 -65 -4 -7 -4 -9 1 -5 12 11 38 -29 29 -45 -4 -6 -4 -9 1 -5 11 11
47 -50 39 -65 -4 -7 -4 -9 1 -5 11 11 47 -50 39 -65 -4 -7 -4 -9 1 -5 11 11
47 -50 39 -65 -4 -7 -4 -9 1 -5 12 11 38 -29 29 -45 -4 -6 -4 -9 1 -5 11 11
47 -50 39 -65 -4 -7 -4 -9 1 -5 11 11 38 -29 29 -44 -4 -7 -3 -8 4 -4 7 4 13
1 14 -6 0 -7 2 -20 3 -28 2 -22 -15 -51 -26 -45 -5 4 -9 3 -8 -2 3 -20 -2 -34
-11 -28 -6 3 -7 -1 -4 -10 4 -8 1 -22 -6 -30 -11 -14 -15 -14 -32 2 -10 9 -16
23 -13 30 2 8 1 12 -3 9 -12 -7 -73 104 -65 117 3 7 3 9 -2 5 -11 -11 -47 50
-39 65 4 7 4 9 -1 5 -12 -11 -38 29 -29 45 4 6 4 9 -1 5 -11 -11 -47 50 -39
65 4 7 4 9 -1 5 -11 -11 -47 50 -39 65 4 7 4 9 -1 5 -12 -11 -38 29 -29 45 4
6 4 9 -1 5 -11 -11 -47 50 -39 65 4 7 4 9 -1 5 -11 -11 -47 50 -39 65 4 7 4 9
-1 5 -11 -10 -47 50 -39 64 4 6 3 8 -4 4 -11 -6 -28 30 -23 49 1 6 -1 7 -5 3
-10 -11 -46 51 -38 65 4 7 4 9 -1 5 -11 -11 -47 50 -39 65 4 7 4 9 -1 5 -12
-11 -38 29 -29 45 4 6 4 9 -1 5 -11 -11 -47 50 -39 65 4 7 4 9 -1 5 -11 -11
-47 50 -39 65 4 7 4 9 -1 5 -11 -11 -47 50 -39 65 4 7 4 9 -1 5 -11 -10 -47
50 -39 64 4 6 3 8 -3 5 -12 -8 -75 101 -66 116 3 7 3 9 -2 5 -11 -11 -47 50
-39 65 4 7 4 9 -1 5 -11 -11 -47 50 -39 65 4 7 4 9 -1 5 -12 -11 -38 29 -29
45 4 6 4 9 -1 5 -11 -11 -47 50 -39 65 4 7 4 9 -1 5 -11 -11 -47 50 -39 65 4
7 4 9 -1 5 -12 -11 -38 29 -29 45 4 6 4 9 -1 5 -11 -11 -47 50 -39 65 4 7 4 9
-1 5 -11 -11 -47 50 -39 65 4 7 4 9 -1 5 -11 -11 -47 50 -39 65 4 7 4 9 -1 5
-11 -10 -47 50 -39 64 4 6 3 8 -4 4 -11 -6 -28 30 -23 49 1 6 -1 7 -5 3 -10
-11 -46 51 -38 65 4 7 4 9 -1 5 -11 -10 -47 50 -39 64 5 7 2 8 -6 3 -10 -6
-12 -4 -7 9 4 9 3 15 -1 12 -11 -7 -84 143 -76 156 4 6 3 8 -4 4 -14 -9 -27
33 -14 46 6 6 72 11 155 12 80 0 141 4 135 7 -13 8 425 32 469 25 23 -3 30 -2
19 2 -24 10 582 47 621 38 16 -4 23 -3 16 2 -16 10 763 57 809 48 23 -4 29 -3
18 4 -11 7 2 10 45 11 33 1 107 5 165 9 155 10 233 11 248 2z m-6118 -362 c11
-23 18 -46 14 -52 -5 -7 -3 -8 6 -3 10 6 12 4 7 -9 -4 -9 -3 -15 2 -12 11 7
33 -43 25 -56 -4 -6 -3 -9 2 -5 12 7 96 -151 88 -165 -5 -7 -2 -8 6 -3 10 6
12 4 7 -9 -4 -9 -3 -15 2 -12 12 8 23 -22 14 -37 -3 -7 -2 -9 2 -5 11 11 68
-90 59 -104 -5 -7 -3 -8 6 -3 10 6 12 4 7 -9 -5 -11 -3 -15 5 -10 8 5 9 1 4
-12 -4 -10 -4 -15 0 -11 11 10 77 -111 68 -125 -5 -7 -3 -8 6 -3 10 6 12 4 7
-9 -5 -11 -3 -15 5 -10 8 5 9 1 4 -12 -4 -10 -4 -15 0 -11 10 10 76 -112 68
-125 -5 -7 -2 -8 6 -3 10 6 12 4 7 -9 -5 -11 -3 -15 5 -10 8 5 9 1 4 -12 -4
-10 -4 -15 0 -11 11 10 126 -211 118 -225 -5 -7 -3 -8 6 -3 10 6 12 4 7 -9 -4
-9 -3 -15 2 -12 12 8 23 -22 14 -37 -3 -7 -2 -9 2 -4 11 9 207 -371 199 -385
-5 -7 -2 -8 6 -3 10 6 12 4 7 -9 -4 -9 -3 -15 1 -12 12 7 64 -103 56 -117 -4
-7 -3 -9 1 -4 11 9 257 -472 248 -486 -4 -6 -1 -7 7 -2 10 6 12 4 7 -9 -4 -9
-3 -15 2 -12 11 7 33 -43 25 -56 -4 -6 -3 -8 3 -5 5 3 22 -20 38 -52 22 -47
25 -62 16 -79 -12 -22 -45 -37 -61 -27 -5 3 -10 1 -10 -4 0 -6 -7 -11 -15 -11
-8 0 -15 5 -15 11 0 5 -4 8 -9 5 -13 -8 -34 21 -25 35 5 8 3 9 -6 4 -10 -6
-12 -4 -7 9 4 9 3 15 -2 12 -12 -8 -23 22 -14 37 3 7 2 9 -2 5 -11 -10 -227
410 -219 424 5 7 2 8 -6 3 -10 -6 -12 -4 -7 9 4 9 3 15 -1 12 -12 -7 -44 63
-36 77 4 7 3 9 -1 4 -11 -9 -177 311 -169 325 5 7 2 8 -6 3 -10 -6 -12 -4 -7
9 4 9 3 15 -1 12 -12 -7 -64 103 -56 117 4 7 3 9 -1 4 -11 -9 -197 352 -188
366 4 6 1 7 -7 2 -10 -6 -12 -4 -7 9 4 9 3 15 -2 12 -12 -8 -23 22 -14 37 3 7
2 9 -2 4 -11 -9 -97 152 -88 166 4 6 1 7 -7 2 -10 -6 -12 -4 -7 9 5 11 3 15
-5 10 -8 -5 -9 -1 -4 12 4 10 4 15 0 11 -10 -10 -86 131 -78 145 5 7 3 8 -6 3
-10 -6 -12 -4 -7 9 5 11 3 15 -5 10 -8 -5 -9 -1 -4 12 4 10 4 15 0 11 -5 -4
-14 3 -21 15 -10 19 -12 -194 -13 -1132 0 -635 -4 -1160 -8 -1166 -10 -16 -88
-54 -96 -47 -3 4 -6 642 -6 1419 0 1120 3 1413 13 1417 6 3 13 6 14 6 2 1 12
-17 23 -39z m6240 -1380 c0 -1346 -1 -1420 -17 -1420 -24 1 -55 25 -45 35 4 5
1 5 -6 1 -15 -9 -45 12 -36 25 3 5 2 9 -3 9 -4 0 -7 515 -6 1145 2 630 -1
1144 -6 1141 -5 -3 -14 -19 -21 -36 -7 -16 -17 -27 -23 -23 -6 3 -7 1 -3 -5 8
-13 -58 -135 -68 -125 -4 4 -4 -1 0 -11 5 -13 4 -17 -4 -12 -8 5 -10 1 -5 -10
5 -13 3 -15 -7 -9 -9 5 -11 4 -6 -3 8 -14 -68 -155 -78 -145 -4 4 -4 -1 0 -11
6 -15 4 -17 -6 -11 -9 5 -11 4 -6 -3 8 -14 -68 -155 -78 -145 -4 4 -4 -1 0
-11 5 -13 4 -17 -4 -12 -8 5 -10 1 -5 -10 5 -13 3 -15 -7 -9 -8 5 -11 4 -7 -2
8 -13 -127 -276 -137 -266 -4 4 -4 -1 0 -11 5 -13 4 -17 -4 -12 -8 5 -10 1 -5
-10 5 -13 3 -15 -7 -9 -8 5 -11 4 -6 -3 8 -14 -98 -214 -109 -205 -4 5 -5 3
-2 -4 9 -15 -2 -45 -14 -37 -5 3 -6 -3 -2 -12 4 -12 3 -15 -5 -10 -7 4 -10 2
-7 -6 6 -18 -119 -250 -130 -241 -4 5 -5 3 -1 -4 8 -14 -14 -64 -25 -57 -5 3
-6 -3 -2 -12 5 -13 3 -15 -7 -9 -8 5 -11 4 -7 -2 9 -14 -137 -295 -148 -286
-4 5 -5 3 -1 -4 8 -14 -14 -64 -25 -57 -5 3 -6 -3 -2 -12 4 -12 3 -15 -5 -10
-7 4 -10 2 -7 -7 3 -7 -8 -32 -25 -55 -22 -30 -37 -42 -56 -42 -14 0 -23 4
-20 8 3 5 -5 8 -16 8 -14 -1 -28 9 -37 26 -14 24 -13 30 8 77 13 28 28 48 32
45 5 -3 6 3 2 12 -5 13 -3 15 7 9 9 -5 11 -4 6 3 -9 14 146 312 158 305 5 -4
6 -1 2 5 -8 13 24 83 36 76 4 -3 5 3 1 12 -5 13 -3 15 7 9 8 -5 11 -4 7 2 -9
14 157 335 168 326 4 -5 5 -3 1 4 -8 14 34 104 46 97 4 -3 5 3 1 12 -5 13 -3
15 7 9 9 -5 11 -4 6 3 -8 14 118 255 128 245 4 -4 4 1 0 11 -5 13 -4 17 4 12
8 -5 10 -1 5 10 -5 13 -3 15 7 9 9 -5 11 -4 6 3 -8 14 68 155 78 145 4 -4 4 1
0 11 -6 15 -4 17 6 11 9 -5 11 -4 6 3 -8 14 48 115 58 105 4 -4 4 1 0 11 -6
15 -4 17 6 11 8 -5 11 -4 7 2 -8 13 47 116 57 106 4 -4 4 1 0 11 -6 15 -4 17
6 11 9 -5 11 -4 6 3 -8 14 48 115 58 105 4 -4 4 1 0 11 -6 15 -4 17 6 11 8 -5
11 -4 6 3 -8 13 58 135 68 125 4 -4 4 1 0 11 -5 13 -4 17 4 12 8 -5 10 -1 5
10 -5 13 -3 15 7 9 8 -5 11 -4 6 3 -8 13 68 155 78 145 4 -4 4 1 0 11 -6 15
-4 17 6 11 8 -5 11 -4 6 3 -8 14 88 194 99 184 4 -4 5 -1 1 6 -9 15 1 32 20
32 12 0 14 -190 14 -1420z m-5013 1264 c13 -4 21 -10 18 -14 -2 -4 7 -5 22 -2
18 3 24 1 19 -6 -4 -7 -2 -10 6 -7 26 10 48 -20 59 -79 6 -33 9 -70 6 -82 -2
-13 -1 -22 3 -19 9 6 44 -260 36 -280 -4 -10 -2 -14 5 -9 8 4 10 -6 7 -34 -2
-22 1 -38 5 -35 5 3 8 -15 6 -40 -2 -25 -1 -43 2 -41 10 6 22 -133 13 -147 -5
-8 -3 -9 6 -4 9 6 11 -2 8 -33 -2 -22 1 -38 5 -35 5 3 8 -13 5 -35 -2 -22 1
-38 5 -35 5 3 7 -3 5 -13 -2 -12 -12 -19 -25 -18 -12 0 -20 -3 -18 -6 3 -4
-26 -10 -63 -13 -77 -7 -96 6 -90 60 2 17 1 30 -3 27 -10 -6 -22 112 -13 127
5 8 3 9 -6 4 -9 -6 -11 2 -8 33 2 22 -1 38 -6 35 -4 -3 -7 10 -4 30 2 20 0 33
-5 30 -5 -3 -8 12 -5 35 2 22 0 39 -3 36 -10 -6 -32 182 -24 197 6 8 4 10 -5
4 -9 -6 -11 2 -8 33 2 22 0 38 -4 36 -5 -3 -8 8 -8 24 0 19 -6 32 -17 36 -10
4 -14 4 -10 0 10 -10 -31 -36 -45 -28 -6 4 -8 3 -5 -3 8 -13 -50 -46 -65 -37
-7 5 -8 3 -3 -6 6 -10 4 -12 -9 -7 -9 4 -15 3 -12 -1 3 -5 -11 -16 -30 -25
-38 -19 -89 -23 -79 -7 3 5 0 7 -8 4 -16 -6 -31 22 -20 38 4 7 1 8 -7 3 -10
-6 -12 -1 -8 18 3 15 1 24 -3 21 -21 -13 -6 37 20 70 42 52 72 74 143 103 35
13 77 33 94 44 17 10 35 15 39 11 5 -4 5 -2 1 5 -4 7 4 18 21 27 33 18 31 18
60 10z m3802 -20 c17 -4 28 -10 25 -15 -3 -5 2 -6 10 -3 41 16 226 -135 212
-173 -3 -8 -2 -11 3 -8 12 7 24 -31 15 -46 -5 -8 -3 -9 6 -4 10 6 12 1 8 -18
-3 -15 -1 -24 3 -21 5 3 9 -38 9 -91 0 -53 -4 -94 -8 -91 -5 3 -6 -9 -4 -26 3
-19 1 -28 -5 -25 -6 4 -8 -4 -5 -20 4 -19 2 -24 -8 -18 -8 5 -11 4 -6 -3 10
-16 -4 -63 -17 -55 -6 3 -7 1 -3 -6 10 -15 -15 -82 -27 -74 -6 3 -7 1 -3 -6
10 -16 -3 -53 -16 -45 -6 4 -8 2 -4 -4 9 -14 -25 -83 -37 -75 -6 3 -7 1 -3 -6
10 -15 -62 -104 -76 -95 -7 4 -8 2 -4 -4 8 -13 -28 -35 -39 -24 -5 4 -5 2 -2
-4 8 -15 -47 -39 -64 -28 -7 4 -10 3 -6 -3 4 -6 -9 -13 -32 -17 -47 -7 -133 3
-125 15 3 5 -2 6 -11 3 -20 -8 -127 44 -119 58 4 7 2 8 -4 4 -14 -8 -78 48
-98 85 -16 32 -20 124 -4 114 6 -4 7 1 3 10 -9 24 14 35 74 35 47 0 54 -3 78
-34 14 -19 41 -44 60 -57 18 -13 32 -26 30 -29 -2 -3 27 -6 65 -6 38 0 66 4
64 8 -5 8 12 12 31 8 5 -1 7 2 3 6 -10 9 12 35 23 28 5 -3 8 -2 7 3 -4 17 14
53 24 47 7 -4 8 -2 4 4 -4 7 -34 12 -74 12 -50 0 -63 3 -52 11 12 8 10 9 -7 4
-26 -7 -105 14 -97 26 3 5 -3 6 -12 2 -11 -4 -15 -2 -11 4 4 6 -1 10 -11 9 -9
0 -16 5 -14 12 1 8 -2 11 -7 8 -20 -13 -109 113 -95 136 5 7 3 8 -6 3 -10 -6
-12 -3 -8 13 4 12 3 20 -2 17 -4 -2 -10 9 -14 26 -13 64 -3 184 14 174 5 -3 6
5 2 17 -4 16 -2 19 8 13 9 -5 11 -4 6 4 -21 34 109 177 187 204 45 16 115 21
166 11z m-1883 -562 c-3 -5 8 -6 24 -4 51 7 196 -50 183 -72 -3 -6 -3 -8 2 -4
11 11 47 -11 39 -24 -4 -6 -3 -8 4 -5 23 15 108 -119 99 -154 -3 -11 -1 -17 4
-13 5 3 9 -24 9 -61 0 -36 -4 -64 -9 -61 -4 3 -6 -6 -3 -21 4 -19 2 -24 -8
-18 -8 5 -11 4 -6 -3 9 -14 -14 -63 -27 -55 -6 3 -7 1 -3 -5 10 -16 -41 -65
-57 -56 -6 4 -9 4 -5 -1 4 -4 3 -17 -3 -28 -8 -13 -8 -17 0 -13 24 15 141
-120 125 -145 -4 -7 -3 -9 3 -6 16 10 33 -63 33 -139 0 -80 -8 -116 -23 -107
-6 3 -7 1 -3 -5 10 -17 -29 -87 -74 -132 -45 -45 -135 -94 -157 -86 -9 4 -11
2 -7 -6 5 -7 -1 -9 -19 -6 -16 3 -24 1 -20 -5 3 -6 -8 -8 -30 -5 -20 2 -33 0
-31 -4 3 -4 -30 -8 -73 -8 -49 0 -73 4 -64 9 8 5 -5 7 -34 3 -34 -3 -46 -2
-41 6 4 8 2 10 -8 6 -22 -8 -88 15 -80 28 4 6 2 8 -4 5 -13 -9 -44 2 -37 13 3
4 -3 7 -13 6 -9 0 -16 5 -14 12 1 8 -1 11 -6 8 -25 -15 -140 148 -128 180 3 8
2 13 -3 10 -5 -3 -11 8 -15 25 -13 67 -2 174 17 162 6 -3 7 -1 3 6 -9 15 3 53
15 46 5 -3 6 2 2 11 -4 12 -3 15 5 10 7 -4 10 -2 6 7 -5 13 77 98 106 110 12
5 11 8 -5 18 -33 21 -76 73 -70 87 3 8 0 10 -7 6 -8 -5 -9 -2 -5 10 4 10 3 15
-3 11 -12 -7 -24 40 -14 56 4 8 3 9 -4 5 -18 -11 -15 112 4 167 9 26 36 69 60
96 52 58 138 116 160 107 10 -4 13 -2 8 6 -5 7 1 9 19 6 16 -3 24 -1 20 5 -4
7 11 8 43 4 31 -4 42 -3 29 3 -14 6 -4 9 38 9 32 1 56 -3 53 -7z m-2656 -1087
c27 -14 35 -26 31 -48 -1 -5 3 -6 8 -3 12 8 42 -34 34 -47 -3 -6 -1 -7 5 -3
14 8 36 -30 26 -46 -4 -6 -3 -8 3 -5 5 4 16 -4 23 -18 11 -21 9 -31 -17 -84
-17 -33 -33 -58 -37 -54 -4 4 -4 1 -1 -8 5 -13 -150 -333 -177 -366 -11 -14
-32 -18 -24 -5 3 5 -8 6 -25 4 -35 -5 -76 19 -89 53 -7 19 -2 40 22 94 17 39
35 68 39 65 5 -3 6 3 2 12 -4 12 -3 15 5 10 8 -5 10 -1 5 10 -5 13 -3 15 7 9
9 -5 11 -4 6 3 -4 6 20 66 52 132 l59 120 -69 0 c-38 0 -67 3 -65 8 3 4 -8 7
-24 8 -74 3 -106 71 -52 114 16 13 37 20 50 17 12 -2 20 -1 18 3 -6 10 83 32
97 24 7 -4 8 -3 4 4 -11 18 49 15 84 -3z m5239 -16 c6 -18 11 -38 11 -46 0
-21 -46 -84 -55 -75 -5 4 -5 2 -2 -4 4 -7 -3 -24 -15 -40 -13 -15 -17 -25 -10
-20 8 5 12 -1 12 -18 0 -18 5 -24 20 -23 10 1 17 3 15 6 -9 8 35 32 47 25 6
-4 8 -3 5 3 -15 24 80 30 121 9 39 -20 75 -62 67 -77 -6 -8 -4 -10 5 -4 10 6
12 4 7 -9 -4 -9 -3 -15 2 -11 12 7 25 -51 15 -66 -4 -8 -3 -9 4 -5 8 5 12 -5
12 -31 0 -29 -3 -35 -11 -23 -8 12 -9 10 -4 -7 8 -28 -4 -75 -18 -66 -6 3 -7
1 -3 -6 10 -16 -64 -112 -114 -146 -30 -21 -45 -25 -69 -20 -17 4 -29 10 -26
15 3 4 -5 6 -17 2 -14 -3 -19 -1 -14 6 5 8 2 10 -9 6 -24 -10 -45 15 -45 52 0
28 6 38 33 54 18 12 50 20 75 20 36 0 45 4 61 30 10 16 20 27 23 25 3 -3 1 16
-4 42 -5 26 -10 54 -11 61 0 6 -2 10 -5 7 -3 -2 -13 0 -23 6 -27 14 -83 -12
-105 -49 -10 -17 -21 -29 -25 -27 -4 3 -6 -3 -5 -13 1 -11 -7 -18 -23 -20 -16
-3 -21 0 -16 9 5 7 4 10 -3 5 -15 -9 -63 4 -56 15 3 5 -1 6 -9 3 -32 -12 -38
20 -31 160 4 74 10 133 15 131 4 -3 5 3 2 14 -5 21 43 65 60 54 5 -3 7 -1 4 4
-9 14 58 73 82 73 12 0 23 -11 30 -31z m-1009 -654 c7 -8 10 -24 7 -35 -3 -13
-1 -18 6 -13 6 4 8 -2 5 -15 -4 -14 -2 -20 5 -15 7 4 8 0 4 -11 -4 -9 -3 -14
2 -11 5 3 13 -4 16 -15 8 -25 -21 -74 -37 -64 -6 4 -8 3 -5 -3 8 -13 -37 -75
-48 -65 -5 4 -5 2 -2 -4 8 -14 -37 -77 -47 -66 -4 4 -7 2 -6 -3 5 -22 -1 -36
-12 -29 -6 4 -8 3 -5 -3 7 -11 -37 -76 -45 -68 -2 3 -5 -1 -5 -8 0 -21 -55
-97 -66 -90 -5 3 -7 2 -4 -4 7 -10 -46 -96 -55 -88 -2 3 -5 -1 -5 -8 0 -20
-55 -97 -64 -91 -5 3 -9 2 -8 -3 3 -19 -2 -34 -9 -29 -5 3 -9 0 -9 -7 0 -20
-34 -67 -44 -61 -5 3 -9 2 -8 -3 4 -21 -2 -34 -13 -27 -6 4 -8 3 -5 -3 8 -13
-57 -106 -67 -96 -4 5 -7 4 -6 -2 5 -22 -1 -36 -12 -29 -6 4 -8 3 -5 -3 8 -13
-37 -75 -47 -65 -4 4 -7 3 -6 -3 4 -20 0 -36 -8 -31 -5 3 -9 0 -9 -7 0 -20
-55 -97 -64 -91 -5 3 -9 2 -8 -3 3 -19 -2 -34 -9 -29 -5 3 -9 0 -9 -7 0 -21
-55 -97 -66 -90 -5 3 -7 2 -4 -4 7 -11 -37 -76 -45 -68 -2 3 -5 -1 -5 -8 0
-20 -55 -97 -64 -91 -5 3 -9 2 -8 -3 4 -21 -2 -34 -13 -27 -6 4 -8 3 -5 -3 8
-13 -37 -75 -48 -65 -5 4 -5 2 -2 -4 7 -12 -56 -108 -65 -99 -2 3 -5 -1 -5 -8
0 -20 -34 -67 -44 -61 -5 3 -9 2 -8 -3 4 -21 -2 -34 -13 -27 -6 4 -8 3 -5 -3
8 -13 -57 -106 -67 -96 -4 5 -7 4 -6 -2 5 -23 -1 -36 -12 -29 -7 4 -10 4 -6
-1 10 -11 -11 -47 -23 -40 -5 4 -9 3 -8 -2 4 -21 -2 -34 -13 -27 -6 4 -8 3 -5
-3 8 -13 -37 -75 -48 -65 -5 4 -5 2 -2 -4 7 -12 -36 -77 -45 -69 -2 3 -5 -1
-5 -8 0 -8 -21 -44 -47 -81 -36 -49 -51 -64 -61 -56 -6 5 -15 7 -18 3 -13 -12
-7 13 6 26 10 11 10 13 0 7 -12 -7 -17 6 -16 41 1 7 -3 11 -7 8 -4 -2 -12 7
-19 21 -13 29 2 60 22 47 5 -3 7 -2 4 4 -8 13 37 75 47 65 4 -4 7 -2 6 3 -4
20 0 36 8 31 5 -3 9 0 9 7 0 20 34 67 44 61 5 -3 9 -2 8 3 -3 19 2 34 9 29 5
-3 9 0 9 7 0 20 55 97 64 91 5 -3 9 -2 8 3 -4 21 2 34 13 27 6 -4 8 -3 5 3 -8
13 57 105 68 96 4 -5 5 -3 2 3 -8 14 57 107 68 97 4 -5 5 -3 2 3 -6 11 26 67
35 59 2 -3 5 1 5 8 0 20 34 67 44 61 5 -3 9 -2 8 3 -4 21 2 34 13 27 6 -4 8
-3 5 3 -7 11 37 76 45 68 2 -3 5 1 5 8 0 20 34 67 44 61 5 -3 9 -2 8 3 -4 21
2 34 13 27 6 -4 8 -3 5 3 -7 11 56 106 65 98 2 -3 5 1 5 8 0 21 55 97 66 90 5
-3 7 -2 4 4 -8 13 27 65 38 56 4 -5 5 -3 2 3 -8 14 37 77 47 66 4 -4 7 -2 6 3
-4 20 0 36 8 31 5 -3 9 0 9 7 0 20 34 67 44 61 5 -3 9 -2 8 3 -3 19 2 34 9 29
5 -3 9 1 9 8 0 20 76 125 87 119 5 -4 6 -2 3 4 -8 13 27 65 38 56 4 -5 5 -3 2
3 -8 14 57 107 67 97 4 -5 7 -3 6 2 -5 22 1 36 12 29 6 -4 8 -3 5 3 -8 13 57
106 67 96 4 -5 7 -3 6 2 -5 22 1 36 12 29 6 -4 8 -3 5 3 -7 11 37 76 45 68 2
-3 5 1 5 8 0 22 35 67 47 60 6 -3 8 -3 4 2 -9 9 10 47 20 41 4 -2 8 4 8 15 0
14 -7 19 -26 18 -23 0 -23 -1 -5 -9 11 -5 -636 -8 -1480 -7 l-1500 2 1475 5
1475 5 -1484 3 -1483 2 16 -25 c9 -14 23 -35 31 -48 8 -13 13 -27 10 -30 -3
-4 -2 -5 2 -2 10 7 53 -57 46 -69 -3 -6 -3 -8 2 -4 11 10 56 -52 48 -65 -3 -6
-1 -7 4 -4 11 7 46 -39 46 -60 0 -7 3 -11 5 -8 9 9 72 -87 65 -99 -3 -6 -3 -8
2 -4 11 10 56 -52 48 -65 -3 -6 -1 -7 5 -3 11 7 17 -7 12 -29 -1 -5 2 -7 6 -3
10 10 55 -52 47 -65 -3 -6 -1 -7 5 -3 11 7 17 -6 13 -27 -1 -5 3 -6 8 -3 10 6
44 -41 44 -61 0 -7 4 -10 9 -7 8 5 12 -11 8 -31 -1 -5 2 -7 6 -3 10 10 55 -52
47 -65 -3 -6 -1 -7 5 -3 11 7 17 -6 13 -27 -1 -5 3 -6 8 -3 10 6 44 -41 44
-61 0 -7 3 -11 5 -8 8 8 52 -57 45 -68 -3 -6 -1 -7 5 -3 11 7 17 -6 13 -27 -1
-5 3 -6 8 -3 10 6 44 -41 44 -61 0 -7 3 -11 5 -8 9 9 72 -87 65 -99 -3 -6 -3
-8 2 -4 11 10 56 -52 48 -65 -3 -6 -1 -7 5 -3 11 7 17 -7 12 -29 -1 -5 2 -7 6
-3 10 10 55 -52 47 -65 -3 -6 -1 -7 5 -3 11 7 17 -6 13 -27 -1 -5 3 -6 8 -3
10 6 44 -41 44 -61 0 -7 3 -11 5 -8 9 8 41 -48 35 -59 -3 -6 -3 -8 2 -4 11 10
56 -52 48 -66 -3 -6 -3 -8 2 -4 11 10 56 -52 48 -66 -3 -6 -2 -8 2 -3 11 9 46
-43 38 -57 -3 -6 -2 -8 2 -3 11 9 76 -83 68 -96 -3 -6 -1 -7 5 -3 11 7 17 -6
13 -27 -1 -5 3 -6 8 -3 9 6 64 -71 64 -91 0 -7 4 -10 9 -7 8 5 12 -11 8 -31
-1 -5 2 -7 5 -3 8 8 52 -42 47 -54 -1 -5 3 -8 10 -8 6 0 3 -7 -8 -16 -10 -8
-13 -13 -7 -9 9 4 11 1 7 -9 -3 -9 -10 -14 -14 -11 -4 3 -8 -1 -7 -8 1 -30 -4
-48 -12 -43 -4 3 -6 -5 -4 -18 7 -34 -16 -44 -39 -17 -10 13 -15 28 -11 34 3
6 1 7 -5 3 -11 -7 -17 7 -12 29 1 5 -2 7 -6 3 -10 -10 -55 52 -47 65 3 6 1 7
-5 3 -11 -7 -17 7 -12 29 1 5 -2 7 -6 3 -9 -10 -75 83 -67 95 3 6 1 7 -5 3
-11 -7 -17 7 -12 29 1 6 -2 7 -6 2 -10 -10 -75 83 -67 97 3 6 2 8 -2 3 -11 -9
-76 83 -68 96 3 6 1 7 -4 4 -11 -7 -46 39 -46 60 0 7 -4 10 -9 7 -8 -5 -12 11
-8 31 1 6 -2 7 -6 2 -10 -10 -75 83 -67 96 3 6 1 7 -5 3 -11 -7 -17 7 -12 29
1 6 -2 7 -6 3 -10 -10 -55 52 -47 65 3 6 1 7 -5 3 -11 -7 -17 6 -13 27 1 5 -3
6 -8 3 -10 -6 -44 41 -44 61 0 7 -4 10 -9 7 -8 -5 -12 11 -8 31 1 5 -2 7 -6 3
-10 -10 -55 52 -47 65 3 6 1 7 -5 3 -11 -7 -17 6 -13 27 1 5 -3 6 -8 3 -10 -6
-44 41 -44 61 0 7 -4 10 -7 8 -9 -6 -63 74 -63 92 0 7 -4 10 -8 8 -8 -6 -42
44 -42 62 0 7 -4 10 -9 7 -7 -5 -12 10 -9 29 1 5 -3 6 -8 3 -10 -6 -44 41 -44
61 0 7 -3 11 -5 8 -8 -8 -52 57 -45 68 3 6 1 7 -5 3 -11 -7 -17 7 -12 29 1 5
-2 7 -6 2 -10 -10 -75 83 -67 96 3 6 1 7 -5 3 -11 -7 -17 6 -13 27 1 5 -3 6
-8 3 -10 -6 -44 41 -44 61 0 7 -3 11 -5 8 -8 -8 -52 57 -45 68 3 6 1 7 -5 3
-11 -7 -17 6 -13 27 1 5 -3 6 -8 2 -11 -6 -33 28 -26 39 3 3 2 4 -2 1 -10 -7
-53 57 -46 69 3 6 3 8 -2 4 -11 -10 -56 52 -48 65 3 6 1 7 -5 3 -11 -7 -17 6
-13 27 1 5 -3 6 -8 3 -10 -6 -44 41 -44 61 0 7 -4 10 -9 7 -7 -5 -12 10 -9 29
1 5 -3 6 -9 2 -13 -8 -34 39 -26 60 3 9 10 14 15 11 5 -3 9 0 8 7 -1 30 4 48
12 43 4 -3 6 6 3 19 -11 59 -126 55 1638 55 1423 0 1619 -2 1630 -15z m362
-211 c22 -4 35 -11 31 -17 -3 -6 -1 -7 6 -3 13 8 82 -14 76 -25 -3 -4 1 -7 8
-6 34 1 48 -4 41 -15 -4 -7 -3 -8 5 -4 15 10 82 -15 74 -27 -3 -6 -1 -7 6 -3
16 10 53 -3 45 -16 -4 -7 -2 -8 5 -4 15 10 82 -15 74 -27 -3 -6 -1 -7 6 -3 16
10 83 -13 75 -26 -4 -7 -2 -8 5 -4 15 10 82 -15 74 -27 -3 -6 -1 -7 6 -3 13 8
82 -14 76 -25 -3 -4 1 -7 8 -6 34 1 48 -4 41 -15 -4 -7 -3 -8 5 -4 13 8 82
-14 76 -25 -3 -4 1 -7 8 -6 34 1 48 -4 41 -15 -4 -7 -3 -8 5 -4 16 10 53 -3
45 -16 -4 -6 -3 -8 3 -5 11 7 83 -13 83 -22 -1 -27 -105 -101 -143 -101 -16 0
-26 4 -23 9 3 5 0 9 -7 8 -31 -1 -48 4 -43 12 3 5 0 9 -7 8 -34 -1 -48 4 -41
15 4 7 3 8 -5 4 -13 -8 -82 14 -76 25 3 4 -1 7 -8 6 -31 -1 -48 4 -43 12 3 5
0 9 -7 8 -34 -1 -48 4 -41 15 4 7 3 8 -5 4 -13 -8 -82 14 -76 25 3 4 -1 7 -8
6 -31 -1 -48 4 -43 12 4 5 -4 7 -16 3 -13 -3 -19 -1 -15 5 4 6 1 11 -6 10 -31
-1 -48 4 -43 12 3 5 0 9 -7 8 -34 -1 -48 4 -41 15 4 7 3 8 -5 4 -13 -8 -82 14
-76 25 3 4 -1 7 -8 6 -34 -1 -48 4 -41 15 4 7 3 8 -5 4 -13 -8 -82 14 -76 25
3 4 -1 7 -8 6 -34 -1 -48 4 -41 15 4 6 3 8 -4 4 -6 -3 -23 -1 -37 6 -24 11
-26 16 -21 46 6 40 31 82 49 82 6 0 29 -3 49 -6z m-3898 -26 c-1 -10 3 -15 9
-11 6 4 8 -2 5 -15 -4 -12 -2 -20 3 -16 5 3 9 -4 9 -16 0 -23 -57 -63 -78 -55
-7 3 -10 0 -7 -5 6 -9 -10 -14 -42 -13 -7 1 -10 -4 -6 -10 4 -6 -2 -8 -15 -5
-12 4 -20 2 -17 -2 7 -12 -32 -23 -46 -14 -8 4 -9 3 -5 -4 7 -11 -7 -16 -41
-15 -7 1 -10 -4 -6 -10 4 -6 -2 -8 -15 -5 -12 4 -20 2 -17 -2 7 -12 -32 -23
-46 -14 -8 4 -9 3 -5 -4 7 -11 -7 -16 -41 -15 -7 1 -11 -2 -8 -6 6 -11 -63
-33 -76 -25 -8 4 -9 3 -5 -4 7 -11 -7 -16 -41 -15 -7 1 -11 -2 -8 -6 6 -11
-92 -44 -106 -35 -8 5 -9 3 -4 -6 6 -10 3 -12 -13 -8 -12 4 -20 2 -16 -3 5 -8
-12 -13 -43 -12 -7 1 -10 -3 -7 -8 5 -8 -12 -13 -43 -12 -7 1 -10 -3 -7 -8 5
-8 -12 -13 -43 -12 -7 1 -10 -3 -7 -8 5 -8 -12 -13 -43 -12 -7 1 -11 -3 -8 -7
3 -4 -12 -8 -32 -8 -38 0 -88 29 -75 43 4 5 2 6 -4 2 -5 -3 -23 5 -40 19 -29
24 -29 24 -9 39 11 9 28 14 38 11 9 -2 15 -1 13 3 -7 11 62 33 75 25 7 -4 9
-3 6 3 -8 12 59 37 74 27 8 -5 9 -3 4 6 -6 10 -3 12 13 8 12 -4 20 -2 17 2 -7
12 32 23 46 14 7 -4 9 -3 6 3 -8 12 59 37 74 27 8 -4 9 -3 5 4 -7 11 7 16 41
15 7 -1 11 3 8 7 -6 9 66 31 78 23 6 -3 7 -2 4 4 -8 12 59 37 74 27 7 -4 9 -3
6 3 -8 12 59 37 74 27 7 -4 9 -3 6 3 -8 12 59 37 74 27 7 -4 9 -3 6 3 -8 12
59 37 74 27 7 -4 9 -3 5 4 -8 13 59 36 75 26 8 -4 9 -3 5 5 -6 9 6 11 46 9 43
-2 53 -6 52 -20z m1631 -200 l45 -22 0 -398 0 -398 -84 0 c-67 0 -85 3 -90 16
-3 9 -6 150 -6 314 0 260 -2 299 -16 304 -8 3 -13 2 -10 -2 3 -5 -15 -18 -40
-30 -51 -25 -171 -31 -192 -10 -31 31 -2 128 35 114 9 -4 11 -2 7 6 -5 8 -2 9
10 5 9 -4 15 -3 12 1 -5 9 117 63 146 65 9 1 14 6 11 11 -4 5 3 7 16 3 13 -3
20 -3 17 0 -6 7 60 41 81 42 7 1 33 -9 58 -21z m495 11 c-12 -8 -10 -9 8 -4
33 9 94 -3 86 -17 -4 -6 -3 -8 4 -4 40 24 206 -133 188 -180 -3 -8 -2 -12 4
-9 6 4 10 -12 10 -40 0 -52 -36 -138 -54 -128 -6 3 -8 3 -4 -2 11 -11 -11 -47
-24 -39 -7 4 -8 3 -4 -4 10 -16 -100 -126 -116 -116 -6 4 -8 3 -4 -4 8 -13
-48 -55 -59 -44 -5 4 -5 2 -2 -4 3 -6 -12 -24 -33 -40 -22 -16 -40 -31 -40
-34 0 -3 75 -6 167 -8 92 -1 171 -6 176 -11 4 -4 7 -37 5 -72 l-3 -64 -302 -3
-303 -2 0 80 c0 72 2 80 23 92 12 7 27 11 32 9 6 -1 7 1 3 5 -10 9 64 64 76
57 5 -4 6 -2 3 4 -7 11 110 100 125 95 5 -1 7 2 4 7 -6 9 50 56 66 56 8 0 23
15 23 23 1 20 28 52 38 46 7 -4 9 -4 5 1 -4 4 -1 20 7 36 23 43 19 96 -9 124
-13 13 -21 27 -17 31 3 4 2 5 -4 2 -5 -3 -33 -2 -62 1 -29 4 -50 4 -48 0 3 -4
-4 -9 -15 -12 -10 -3 -34 -26 -51 -51 -23 -33 -40 -46 -57 -46 -15 0 -21 4
-16 12 4 6 3 8 -3 5 -16 -10 -74 4 -66 16 3 6 1 7 -5 3 -7 -4 -20 -2 -29 3
-10 6 -13 11 -8 11 6 0 5 4 -2 8 -9 6 -7 19 8 52 24 53 58 92 72 83 6 -3 7 -1
3 5 -9 16 91 65 120 59 13 -2 21 -1 19 4 -5 7 20 13 65 17 13 2 13 1 0 -9z
m-2177 -197 c10 -10 14 -22 10 -26 -5 -4 -3 -6 2 -5 17 5 56 -12 50 -22 -3 -5
2 -6 11 -2 11 4 15 3 11 -4 -5 -7 1 -9 15 -5 13 3 19 1 15 -5 -5 -7 1 -9 15
-5 16 4 19 2 13 -8 -5 -9 -4 -11 4 -6 6 4 24 -2 40 -14 23 -16 29 -27 27 -48
-2 -15 -4 -33 -5 -40 0 -7 -6 -10 -13 -6 -7 4 -8 3 -4 -5 10 -16 -3 -53 -16
-45 -6 4 -8 2 -5 -3 9 -14 -12 -75 -23 -68 -4 3 -8 -1 -7 -8 1 -34 -4 -48 -15
-41 -6 4 -8 3 -5 -3 9 -14 -12 -75 -23 -68 -4 3 -8 -1 -7 -8 1 -29 -4 -48 -10
-44 -5 3 -8 -8 -9 -23 -1 -32 -23 -59 -42 -52 -7 2 -10 7 -8 11 3 4 0 8 -7 8
-25 0 -87 46 -87 63 0 29 11 50 23 43 5 -3 7 -1 4 4 -9 14 12 75 23 68 4 -3 6
5 2 17 -4 16 -2 19 8 13 9 -5 11 -4 6 4 -8 13 14 82 25 75 4 -2 5 6 1 18 -3
13 -1 19 5 15 6 -4 11 -1 10 6 -1 32 4 48 13 42 6 -4 7 1 3 11 -5 13 -15 15
-50 11 -23 -2 -43 0 -43 5 0 5 -4 7 -9 3 -5 -3 -21 5 -36 17 l-26 23 22 50
c12 28 26 56 31 63 15 17 42 15 61 -6z m3962 -82 c-3 -5 0 -7 8 -4 21 8 47
-34 47 -75 0 -42 -37 -124 -52 -114 -7 3 -8 1 -4 -5 4 -7 16 -12 27 -12 11 0
17 -4 14 -10 -3 -5 0 -7 8 -4 19 7 47 -32 47 -64 0 -13 -4 -21 -9 -18 -5 4 -7
-4 -3 -16 4 -16 2 -19 -8 -13 -8 5 -11 4 -7 -3 9 -14 -3 -43 -14 -36 -5 3 -7
-1 -4 -8 12 -33 -177 -197 -212 -184 -9 4 -11 1 -7 -6 5 -8 2 -9 -9 -5 -10 4
-17 2 -17 -4 0 -6 -7 -9 -15 -5 -8 3 -15 1 -15 -4 0 -13 -61 -13 -95 0 -16 6
-23 14 -19 22 4 6 3 8 -3 5 -15 -9 -36 20 -29 38 3 9 2 13 -4 10 -6 -3 -10 1
-10 10 0 9 4 13 10 10 6 -3 7 1 4 9 -7 17 43 109 54 102 4 -3 8 4 8 14 0 10
-6 16 -13 13 -7 -3 -24 7 -38 21 -34 34 -34 92 1 152 27 47 71 87 84 79 5 -3
12 0 16 6 5 8 2 10 -7 5 -8 -4 2 6 21 24 41 37 96 63 112 54 7 -5 8 -2 3 6 -6
10 -3 12 13 8 12 -4 20 -2 16 3 -3 5 20 9 51 9 34 0 54 -4 50 -10z m-3948 -86
c-3 -3 -12 -4 -19 -1 -8 3 -5 6 6 6 11 1 17 -2 13 -5z m441 -115 c18 -6 29
-16 25 -22 -3 -5 -1 -7 5 -3 13 7 83 -24 77 -35 -3 -3 3 -6 13 -5 9 0 16 -5
15 -11 -2 -7 0 -12 5 -11 15 4 52 -23 46 -34 -4 -6 -3 -8 4 -4 13 8 67 -59 87
-108 17 -41 20 -96 4 -96 -5 0 -8 -4 -5 -9 8 -13 -41 -54 -55 -46 -8 5 -10 4
-5 -3 4 -7 3 -12 -3 -12 -5 0 -9 -9 -8 -19 0 -11 4 -18 8 -15 13 7 31 -54 23
-78 -4 -13 -7 -26 -6 -30 1 -5 -3 -8 -9 -8 -5 0 -7 -5 -3 -12 4 -6 3 -8 -4 -4
-6 3 -15 -1 -20 -10 -7 -13 -25 -18 -65 -19 -32 -1 -54 3 -50 8 3 5 -4 6 -17
2 -15 -5 -20 -4 -16 4 5 7 1 9 -8 5 -9 -3 -16 -1 -16 6 0 6 -4 9 -9 6 -5 -3
-12 1 -15 10 -3 8 -10 12 -16 9 -11 -7 -49 17 -122 77 -53 44 -111 126 -103
146 2 7 1 11 -4 8 -5 -3 -12 10 -15 29 -7 36 10 90 29 90 6 0 16 4 23 8 6 5
17 5 22 2 6 -3 10 0 11 7 0 9 2 10 5 1 3 -7 12 -9 19 -7 12 5 12 12 -2 46 -40
101 45 176 155 137z m2998 -98 c-3 -22 -2 -29 2 -17 10 24 37 -243 27 -275 -4
-16 -3 -20 3 -11 6 9 11 -9 15 -55 5 -70 -4 -99 -30 -89 -9 4 -11 1 -7 -6 5
-8 2 -9 -10 -5 -9 4 -15 3 -12 -2 7 -11 -22 -23 -36 -14 -6 3 -8 1 -5 -4 9
-14 -18 -24 -39 -16 -13 5 -15 17 -12 60 3 33 1 49 -4 41 -6 -8 -8 9 -6 44 2
31 0 54 -4 52 -7 -4 -15 45 -20 116 -2 25 -7 34 -18 31 -60 -15 -76 -9 -71 22
1 5 -3 6 -8 3 -11 -7 -23 22 -14 36 3 7 1 8 -5 4 -8 -5 -12 0 -12 13 0 23 34
46 52 35 7 -4 8 -3 4 4 -6 11 20 18 47 13 5 -1 6 3 3 7 -11 18 32 45 63 40 17
-2 28 -1 26 3 -6 9 24 21 36 13 5 -3 9 0 9 7 0 8 4 8 16 -2 11 -9 14 -23 10
-48z"/>
<path d="M2674 6058 l-19 -23 23 19 c21 18 27 26 19 26 -2 0 -12 -10 -23 -22z"/>
<path d="M3864 6621 c-27 -3 -63 -15 -80 -26 -16 -11 -32 -19 -35 -18 -3 1 -6
-3 -6 -10 -1 -18 -40 -87 -45 -81 -3 2 -3 -7 0 -22 3 -16 1 -25 -5 -21 -5 4
-8 -7 -5 -25 3 -17 1 -28 -4 -25 -5 3 -9 -32 -9 -78 0 -46 4 -81 9 -78 5 3 7
-8 4 -25 -2 -17 -1 -29 3 -27 10 7 21 -44 13 -57 -4 -6 -3 -8 3 -5 6 4 14 -4
17 -18 3 -13 20 -40 36 -58 16 -19 27 -36 25 -39 -3 -3 1 -5 7 -6 48 -6 77
-16 72 -24 -4 -6 4 -5 16 2 12 7 33 10 46 7 13 -2 21 0 18 4 -5 8 10 13 29 10
5 -1 6 3 3 8 -8 12 18 33 29 23 5 -4 5 -2 2 4 -7 12 26 67 35 58 3 -3 6 1 5 8
-1 31 4 49 12 44 5 -4 7 4 3 16 -3 12 -1 19 4 15 6 -3 8 9 6 30 -3 20 -1 33 4
30 5 -3 9 28 9 69 0 41 -4 74 -9 74 -4 0 -6 13 -4 29 2 17 2 28 -2 26 -7 -4
-45 95 -42 108 2 5 -1 6 -6 3 -12 -7 -54 38 -45 49 5 4 3 5 -3 2 -14 -8 -67
17 -57 26 3 4 4 6 2 6 -2 -1 -27 -5 -55 -8z"/>
<path d="M3442 6355 c0 -16 2 -22 5 -12 2 9 2 23 0 30 -3 6 -5 -1 -5 -18z"/>
<path d="M3575 5900 c10 -11 20 -20 23 -20 3 0 -3 9 -13 20 -10 11 -20 20 -23
20 -3 0 3 -9 13 -20z"/>
<path d="M718 5513 c7 -3 16 -2 19 1 4 3 -2 6 -13 5 -11 0 -14 -3 -6 -6z"/>
<path d="M1338 5473 c7 -3 16 -2 19 1 4 3 -2 6 -13 5 -11 0 -14 -3 -6 -6z"/>
<path d="M1838 5443 c7 -3 16 -2 19 1 4 3 -2 6 -13 5 -11 0 -14 -3 -6 -6z"/>
<path d="M2178 5423 c7 -3 16 -2 19 1 4 3 -2 6 -13 5 -11 0 -14 -3 -6 -6z"/>
<path d="M2338 5413 c7 -3 16 -2 19 1 4 3 -2 6 -13 5 -11 0 -14 -3 -6 -6z"/>
<path d="M2678 5393 c7 -3 16 -2 19 1 4 3 -2 6 -13 5 -11 0 -14 -3 -6 -6z"/>
<path d="M2378 5283 c7 -3 16 -2 19 1 4 3 -2 6 -13 5 -11 0 -14 -3 -6 -6z"/>
<path d="M2738 5263 c7 -3 16 -2 19 1 4 3 -2 6 -13 5 -11 0 -14 -3 -6 -6z"/>
<path d="M6338 5523 c7 -3 16 -2 19 1 4 3 -2 6 -13 5 -11 0 -14 -3 -6 -6z"/>
<path d="M6158 5513 c6 -2 18 -2 25 0 6 3 1 5 -13 5 -14 0 -19 -2 -12 -5z"/>
<path d="M4698 5423 c7 -3 16 -2 19 1 4 3 -2 6 -13 5 -11 0 -14 -3 -6 -6z"/>
<path d="M6208 5393 c7 -3 16 -2 19 1 4 3 -2 6 -13 5 -11 0 -14 -3 -6 -6z"/>
<path d="M3888 5373 c7 -3 16 -2 19 1 4 3 -2 6 -13 5 -11 0 -14 -3 -6 -6z"/>
<path d="M5728 5363 c7 -3 16 -2 19 1 4 3 -2 6 -13 5 -11 0 -14 -3 -6 -6z"/>
<path d="M5408 5343 c7 -3 16 -2 19 1 4 3 -2 6 -13 5 -11 0 -14 -3 -6 -6z"/>
<path d="M5286 4839 c6 -10 -26 -20 -39 -12 -7 3 -9 3 -5 -2 4 -4 -4 -21 -17
-37 -14 -16 -25 -34 -25 -39 0 -6 -4 -8 -8 -5 -5 3 -5 -22 -1 -54 7 -60 34
-111 68 -130 20 -10 135 -30 126 -22 -3 3 8 11 25 18 16 7 38 27 48 43 10 17
21 29 23 26 11 -10 -8 113 -21 135 -8 14 -13 29 -12 33 1 5 -2 6 -7 3 -12 -8
-33 18 -23 29 4 5 2 5 -5 2 -13 -8 -45 2 -39 12 2 3 -18 6 -44 6 -26 0 -46 -3
-44 -6z"/>
<path d="M5172 4690 c0 -14 2 -19 5 -12 2 6 2 18 0 25 -3 6 -5 1 -5 -13z"/>
<path d="M4970 4166 c0 -2 8 -10 18 -17 15 -13 16 -12 3 4 -13 16 -21 21 -21
13z"/>
<path d="M5253 4033 c9 -2 23 -2 30 0 6 3 -1 5 -18 5 -16 0 -22 -2 -12 -5z"/>
<path d="M3438 4273 c7 -3 16 -2 19 1 4 3 -2 6 -13 5 -11 0 -14 -3 -6 -6z"/>
<path d="M3367 4249 c-9 -5 -22 -7 -29 -3 -6 4 -8 3 -5 -3 8 -13 -27 -46 -37
-36 -4 4 -4 -1 0 -11 6 -15 4 -17 -6 -11 -8 5 -11 4 -7 -1 3 -6 7 -37 9 -71 1
-34 6 -59 9 -57 10 6 30 -22 21 -30 -4 -4 -2 -7 3 -6 20 4 36 0 31 -9 -3 -5 0
-9 7 -8 33 1 58 -4 54 -10 -3 -5 19 -8 48 -8 29 0 51 2 49 4 -2 2 14 12 36 22
22 10 43 25 46 34 3 8 9 13 13 11 3 -2 8 20 9 49 4 69 -16 109 -68 135 -43 22
-151 27 -183 9z"/>
<path d="M3392 3770 c-58 -12 -108 -44 -123 -80 -7 -16 -16 -27 -19 -25 -3 2
-3 -22 0 -53 6 -69 34 -119 77 -142 18 -9 30 -20 27 -23 -3 -3 4 -3 17 0 17 5
20 3 14 -7 -5 -7 -4 -11 1 -7 5 3 48 7 96 9 49 2 84 7 80 12 -3 5 3 6 14 2 10
-4 15 -4 12 0 -4 3 6 17 23 31 16 14 35 35 41 47 12 22 18 147 7 140 -10 -6
-20 26 -12 38 3 6 1 8 -4 5 -6 -4 -17 0 -24 9 -33 40 -142 62 -227 44z"/>
<path d="M768 3223 c6 -2 18 -2 25 0 6 3 1 5 -13 5 -14 0 -19 -2 -12 -5z"/>
<path d="M5315 1889 c6 -9 2 -11 -13 -7 -14 4 -20 2 -15 -5 4 -7 0 -8 -13 -3
-10 4 -15 4 -12 0 4 -3 -5 -16 -18 -28 -17 -14 -27 -34 -29 -57 l-3 -37 36 9
c20 4 40 5 44 3 5 -3 7 -2 6 3 -1 4 10 21 25 37 33 35 35 71 6 87 -17 9 -20 8
-14 -2z"/>
<path d="M5346 1698 c5 -8 0 -9 -14 -6 -14 4 -20 2 -15 -5 4 -7 0 -8 -11 -4
-10 4 -15 3 -11 -3 3 -6 1 -11 -4 -11 -6 -1 -15 -2 -21 -3 -5 0 -10 -5 -11
-11 -1 -17 -21 -35 -30 -29 -5 3 -9 2 -8 -3 3 -20 -2 -44 -9 -39 -4 2 -8 -4
-8 -14 0 -11 2 -17 5 -15 2 3 10 0 17 -6 10 -8 22 -7 45 5 17 9 36 13 42 9 6
-4 7 -1 2 7 -6 10 -4 12 9 7 9 -4 15 -3 12 2 -8 12 29 43 39 34 4 -5 5 -2 1 4
-4 7 -2 22 4 34 9 16 8 24 -6 40 -19 21 -40 26 -28 7z"/>
<path d="M5429 1553 c-13 -16 -12 -17 4 -4 16 13 21 21 13 21 -2 0 -10 -8 -17
-17z"/>
<path d="M1928 1665 c-5 -35 -2 -63 7 -62 5 1 9 -5 7 -13 -2 -8 0 -12 4 -8 9
9 85 -32 79 -43 -3 -4 4 -5 15 -2 11 3 23 17 26 32 3 14 7 32 10 39 2 7 0 11
-4 9 -10 -5 -51 40 -44 48 4 3 -1 3 -11 -1 -9 -3 -17 -1 -17 4 0 13 -69 10
-72 -3z"/>
<path d="M1682 1550 c0 -14 2 -19 5 -12 2 6 2 18 0 25 -3 6 -5 1 -5 -13z"/>
<path d="M1865 1501 c-11 -5 -24 -6 -30 -3 -5 3 -7 2 -3 -3 4 -4 2 -15 -5 -23
-9 -13 -9 -14 1 -8 11 7 17 -11 13 -37 -1 -5 3 -6 7 -3 12 7 44 -28 35 -38 -5
-4 -3 -7 2 -6 20 4 36 0 31 -9 -4 -5 4 -7 16 -3 13 3 19 1 15 -5 -4 -6 7 -8
30 -4 29 5 38 12 44 34 5 18 4 25 -4 20 -7 -4 -8 0 -3 13 4 10 4 15 0 11 -10
-10 -35 13 -27 26 3 6 1 7 -5 3 -7 -4 -12 -2 -12 4 0 6 -4 8 -10 5 -5 -3 -10
-1 -10 5 0 6 -4 8 -10 5 -5 -3 -10 -2 -10 4 0 6 -7 8 -15 5 -8 -4 -15 -1 -15
5 0 13 -7 13 -35 2z"/>
</g>
</svg>
